<svg xmlns="http://www.w3.org/2000/svg" viewBox="0 0 512 512">
  <rect width="512" height="512" rx="96" fill="#818cf8"/>
  <circle cx="256" cy="220" r="60" fill="white"/>
  <path d="M256 100c-66 0-120 54-120 120 0 30 11 57 29 78l-12 12c-24-26-37-60-37-90 0-77 63-140 140-140s140 63 140 140c0 30-13 64-37 90l-12-12c18-21 29-48 29-78 0-66-54-120-120-120z" fill="white"/>
  <path d="M256 140c-44 0-80 36-80 80 0 20 7 38 19 52l-12 12c-16-19-27-44-27-64 0-55 45-100 100-100s100 45 100 100c0 20-11 45-27 64l-12-12c12-14 19-32 19-52 0-44-36-80-80-80z" fill="white"/>
  <rect x="244" y="260" width="24" height="120" rx="12" fill="white"/>
  <circle cx="256" cy="400" r="30" fill="white"/>
</svg>
