<svg width="1000" height="1008" viewBox="0 0 1000 1008" fill="none" xmlns="http://www.w3.org/2000/svg">
<style>
  .bg { fill: #ffffff; }
  @media (prefers-color-scheme: dark) {
    .bg { fill: #000000; }
  }
</style>
<rect class="bg" width="1000" height="1008" rx="225"/>
<path d="M512 183C652.833 183 767 296.944 767 437.5C767 578.056 652.833 692 512 692C371.167 692 257 578.056 257 437.5C257 296.944 371.167 183 512 183ZM512 293C431.919 293 367 357.919 367 438C367 518.081 431.919 583 512 583C592.081 583 657 518.081 657 438C657 357.919 592.081 293 512 293Z" fill="#A8B7FC"/>
<rect class="bg" x="256" y="183" width="258" height="511"/>
<rect class="bg" x="409.478" y="550.616" width="113" height="196" transform="rotate(-7 409.478 550.616)"/>
<rect class="bg" x="507.792" y="705.011" width="36" height="35" transform="rotate(-49 507.792 705.011)"/>
<rect class="bg" x="489.293" y="579.946" width="36" height="35" transform="rotate(-53 489.293 579.946)"/>
<rect x="361" y="183" width="153" height="110" fill="#8290F5"/>
<rect x="311" y="183" width="112" height="642" rx="10" fill="#8290F5"/>
</svg>
